<svg width="252" height="216" viewBox="0 0 252 216" fill="none" xmlns="http://www.w3.org/2000/svg">
<rect x="30" width="222" height="20" rx="10" fill="#DADADA"/>
<rect x="2" y="28" width="99" height="20" rx="10" fill="#DADADA"/>
<rect y="168" width="99" height="20" rx="10" fill="#3C3C3C"/>
<rect x="139" y="28" width="111" height="20" rx="10" fill="#3C3C3C"/>
<rect x="137" y="168" width="111" height="20" rx="10" fill="#DADADA"/>
<rect x="175" y="140" width="75" height="20" rx="10" fill="#3C3C3C"/>
<rect x="223" y="56" width="29" height="20" rx="10" fill="#3C3C3C"/>
<rect x="221" y="196" width="29" height="20" rx="10" fill="#DADADA"/>
<rect x="2" y="84" width="41" height="20" rx="10" fill="#3C3C3C"/>
<rect x="2" y="56" width="185" height="20" rx="10" fill="#3C3C3C"/>
<rect y="196" width="185" height="20" rx="10" fill="#DADADA"/>
<rect x="79" y="84" width="171" height="20" rx="10" fill="#3C3C3C"/>
<rect x="2" y="112" width="248" height="20" rx="10" fill="#3C3C3C"/>
<rect x="2" y="140" width="137" height="20" rx="10" fill="#3C3C3C"/>
<circle cx="12" cy="10" r="10" fill="#DADADA"/>
<circle cx="120" cy="38" r="10" fill="#6D9FFF"/>
<circle cx="118" cy="178" r="10" fill="#DADADA"/>
<circle cx="205" cy="66" r="10" fill="#6D9FFF"/>
<circle cx="203" cy="206" r="10" fill="#DADADA"/>
<circle cx="157" cy="150" r="10" fill="#6D9FFF"/>
<circle cx="61" cy="94" r="10" fill="#6D9FFF"/>
</svg>
